<svg height="512pt" viewBox="0 -80 512.00038 512" width="512pt" xmlns="http://www.w3.org/2000/svg"><path d="m336.332031 287.082031c-13.652343 0-26.554687-5.992187-35.402343-16.066406h-89.855469c-8.851563 10.078125-21.753907 16.066406-35.40625 16.066406-25.988281 0-47.132813-21.144531-47.132813-47.132812 0-5.480469.972656-10.921875 2.847656-16.070313-1.875-5.144531-2.847656-10.585937-2.847656-16.0625 0-25.988281 21.144532-47.132812 47.132813-47.132812 13.65625 0 26.558593 5.988281 35.40625 16.066406h89.851562c8.851563-10.078125 21.75-16.066406 35.40625-16.066406 25.992188 0 47.136719 21.144531 47.136719 47.132812 0 5.476563-.972656 10.917969-2.847656 16.0625 1.875 5.148438 2.847656 10.589844 2.847656 16.070313 0 25.988281-21.148438 47.132812-47.136719 47.132812zm-132.871093-46.066406h105.078124c5.355469 0 10.308594 2.859375 12.988282 7.5 3.050781 5.285156 8.722656 8.566406 14.804687 8.566406 9.449219 0 17.136719-7.683593 17.136719-17.132812 0-2.96875-.804688-5.925781-2.324219-8.554688-2.6875-4.644531-2.6875-10.367187-.007812-15.011719 1.523437-2.640624 2.332031-5.601562 2.332031-8.566406 0-9.449218-7.6875-17.132812-17.136719-17.132812-6.082031 0-11.753906 3.28125-14.800781 8.5625-2.679688 4.644531-7.632812 7.503906-12.992188 7.503906h-105.078124c-5.359376 0-10.3125-2.863281-12.992188-7.503906-3.046875-5.28125-8.71875-8.5625-14.800781-8.5625-9.449219 0-17.136719 7.683594-17.136719 17.132812 0 2.964844.808594 5.925782 2.332031 8.566406 2.679688 4.644532 2.679688 10.367188-.007812 15.011719-1.519531 2.625-2.324219 5.585938-2.324219 8.554688 0 9.449219 7.6875 17.132812 17.136719 17.132812 6.078125 0 11.753906-3.28125 14.804687-8.566406 2.679688-4.640625 7.632813-7.5 12.988282-7.5zm0 0"/><path d="m511.851562 334.226562-32.136718-224.933593c-1.054688-7.386719-7.382813-12.878907-14.847656-12.878907h-39.363282c-6.921875-31.074218-34.1875-40.277343-37.195312-41.277343-14.757813-29.59375-45.121094-30.96875-48.382813-31.082031-18.011719-19.441407-42.25-19.535157-55.167969-16.214844-11.496093-6.84375-34.777343-13.539063-57.515624 0-12.921876-3.320313-37.164063-3.222656-55.171876 16.214844-3.226562.113281-33.632812 1.488281-48.382812 31.085937-3.058594 1.015625-30.292969 10.261719-37.195312 41.273437h-39.359376c-7.464843 0-13.792968 5.492188-14.847656 12.878907l-32.132812 224.933593c-.617188 4.304688.667968 8.664063 3.515625 11.949219 2.847656 3.285157 6.984375 5.171875 11.332031 5.171875h482c4.347656 0 8.480469-1.886718 11.332031-5.171875 2.847657-3.285156 4.132813-7.644531 3.519531-11.949219zm-375.316406-251.398437c6.101563-.71875 11.144532-5.085937 12.734375-11.019531 3.023438-11.304688 16.753907-19.359375 27.34375-17.566406 6.074219 1.03125 12.160157-1.757813 15.34375-7.027344 5.71875-9.457032 21.066407-14.050782 31.09375-9.136719 5.539063 2.714844 12.175781 1.761719 16.726563-2.402344 8.167968-7.472656 24.25-7.5 32.449218 0 4.550782 4.164063 11.183594 5.117188 16.726563 2.402344 9.886719-4.84375 25.289063-.457031 31.089844 9.136719 3.1875 5.273437 9.273437 8.054687 15.347656 7.027344 10.777344-1.832032 24.371094 6.453124 27.34375 17.566406 1.585937 5.933594 6.632813 10.300781 12.730469 11.019531 1.453125.171875 12.308594 2.113281 18.335937 13.589844h-275.605469c5.507813-10.5 15.394532-13.242188 18.339844-13.589844zm-104.242187 238.519531 27.851562-194.933594h391.710938l27.851562 194.933594zm0 0"/></svg>